<svg width="40" height="40" viewBox="0 0 40 40" fill="none" xmlns="http://www.w3.org/2000/svg">
<path d="M30.0002 18.3333C30.0002 16.735 28.8668 15.3983 27.3652 15.0767C27.9652 14.075 28.3335 12.9167 28.3335 11.6667C28.3335 7.99 25.3435 5 21.6668 5C19.1385 5 16.9652 6.42833 15.8335 8.50667C14.7018 6.42833 12.5285 5 10.0002 5C6.3235 5 3.3335 7.99 3.3335 11.6667C3.3335 13.17 3.8535 14.545 4.69516 15.66C4.27448 15.9676 3.93204 16.3699 3.6955 16.8343C3.45896 17.2987 3.33495 17.8122 3.3335 18.3333V31.6667C3.3335 33.505 4.8285 35 6.66683 35H26.6668C28.5052 35 30.0002 33.505 30.0002 31.6667V27.27L36.6668 30.6033V18.9367L30.0002 22.27V18.3333ZM21.6668 8.33333C23.5052 8.33333 25.0002 9.82833 25.0002 11.6667C25.0002 13.505 23.5052 15 21.6668 15C19.8285 15 18.3335 13.505 18.3335 11.6667C18.3335 9.82833 19.8285 8.33333 21.6668 8.33333ZM10.0002 8.33333C11.8385 8.33333 13.3335 9.82833 13.3335 11.6667C13.3335 13.505 11.8385 15 10.0002 15C8.16183 15 6.66683 13.505 6.66683 11.6667C6.66683 9.82833 8.16183 8.33333 10.0002 8.33333ZM6.66683 31.6667V18.3333H26.6668L26.6702 31.6667H6.66683Z" fill="#247BA0"/>
</svg>
