<svg width="40" height="40" viewBox="0 0 40 40" fill="none" xmlns="http://www.w3.org/2000/svg">
<path d="M31.5762 14.8988C32.9949 14.8981 34.3836 15.304 35.5755 16.0679C36.7675 16.8317 37.7119 17.921 38.2955 19.2048C38.879 20.4886 39.0768 21.9124 38.8651 23.3051C38.6534 24.6978 38.0412 26.0003 37.102 27.0559V35.4679C37.1025 35.7027 37.0422 35.9337 36.927 36.1388C36.8118 36.3438 36.6455 36.5161 36.444 36.639C36.2425 36.762 36.0126 36.8316 35.7762 36.841C35.5399 36.8505 35.3051 36.7995 35.0943 36.6931L34.9285 36.5925L31.5762 34.2664L28.2239 36.5925C28.0303 36.7267 27.8053 36.8094 27.5704 36.8327C27.3354 36.856 27.0983 36.8192 26.8818 36.7256C26.6653 36.6321 26.4766 36.485 26.3336 36.2984C26.1906 36.1119 26.0982 35.892 26.0652 35.6599L26.0523 35.4679V27.0523C25.1144 25.9966 24.5032 24.6947 24.2921 23.3028C24.081 21.9108 24.2789 20.488 24.862 19.2049C25.4452 17.9219 26.3889 16.8331 27.5798 16.0693C28.7708 15.3055 30.1584 14.8991 31.5762 14.8988ZM34.3391 28.998C33.4613 29.3504 32.5231 29.5311 31.5762 29.5301C30.6293 29.5311 29.6912 29.3504 28.8133 28.998V32.8364L30.786 31.4704C30.988 31.3299 31.2241 31.2456 31.47 31.2263C31.7158 31.207 31.9624 31.2534 32.1841 31.3606L32.3682 31.4704L34.3391 32.8364V28.998ZM33.8786 2.10529C35.1685 2.10522 36.4098 2.59371 37.3494 3.47112C38.2889 4.34853 38.8559 5.54875 38.9347 6.82696L38.9439 7.13418L38.9458 16.7275C38.1988 15.7402 37.2591 14.9124 36.1829 14.2935L36.181 7.13418C36.1813 6.56828 35.9701 6.0224 35.5883 5.60217C35.2066 5.18194 34.6814 4.91724 34.1144 4.85929L33.8786 4.84832H7.17075C6.60076 4.84806 6.05093 5.05773 5.62766 5.43674C5.20439 5.81576 4.93777 6.33718 4.8794 6.90011L4.86835 7.13418V24.5067C4.86835 25.6899 5.77458 26.6646 6.93499 26.7798L7.17075 26.7926L23.6044 26.7944L23.8309 27.1656L24.0778 27.5241L24.2085 27.6959L24.2067 29.5356H7.17075C5.88058 29.5356 4.63902 29.0469 3.69942 28.1691C2.75983 27.2913 2.19303 26.0906 2.11468 24.8121L2.10547 24.5067V7.13418C2.1054 5.85357 2.59743 4.62118 3.48119 3.68839C4.36494 2.75559 5.57385 2.19266 6.86131 2.11443L7.17075 2.10529H33.8786ZM31.5762 17.6418C30.3547 17.6418 29.1832 18.1236 28.3195 18.9811C27.4557 19.8387 26.9705 21.0017 26.9705 22.2145C26.9705 23.4272 27.4557 24.5903 28.3195 25.4478C29.1832 26.3053 30.3547 26.7871 31.5762 26.7871C32.7977 26.7871 33.9692 26.3053 34.833 25.4478C35.6967 24.5903 36.1819 23.4272 36.1819 22.2145C36.1819 21.0017 35.6967 19.8387 34.833 18.9811C33.9692 18.1236 32.7977 17.6418 31.5762 17.6418ZM19.1432 19.4705C19.4933 19.4706 19.8302 19.6026 20.0859 19.8399C20.3417 20.0771 20.4972 20.4019 20.5211 20.7485C20.5449 21.0952 20.4353 21.438 20.2145 21.7075C19.9936 21.9771 19.6779 22.1534 19.3311 22.2007L19.1432 22.2135H10.8546C10.5046 22.2134 10.1677 22.0814 9.91192 21.8442C9.65617 21.607 9.50065 21.2822 9.47679 20.9355C9.45294 20.5888 9.56252 20.2461 9.7834 19.9765C10.0043 19.707 10.32 19.5307 10.6667 19.4833L10.8546 19.4705H19.1432ZM30.1948 9.41272C30.5448 9.41283 30.8817 9.54484 31.1375 9.78207C31.3932 10.0193 31.5487 10.3441 31.5726 10.6908C31.5964 11.0374 31.4869 11.3802 31.266 11.6498C31.0451 11.9193 30.7294 12.0956 30.3827 12.143L30.1948 12.1558H10.8546C10.5046 12.1557 10.1677 12.0236 9.91192 11.7864C9.65617 11.5492 9.50065 11.2244 9.47679 10.8777C9.45294 10.531 9.56252 10.1883 9.7834 9.91873C10.0043 9.64916 10.32 9.47289 10.6667 9.42553L10.8546 9.41272H30.1948Z" fill="#247BA0"/>
</svg>
